# xmcd CD database file
#
# Track frame offsets:
#	150
#	14308
#	21376
#	34598
#	38554
#	57773
#	63963
#	74542
#	78180
#	92338
#	95959
#	108323
#	117156
#	130107
#	137634
#	146946
#	155427
#	172340
#	178321
#	195740
#	198319
#	209929
#	217943
#	234667
#	238497
#	253788
#	259563
#	278176
#	282523
#	298194
#	299247
#
# Disc length: 4169 seconds
#
# Revision: 0
# Processed by: cddbd v1.5.1PL0 Copyright (c) Steve Scherf et al.
# Submitted via: CDex 1.51
#
DISCID=f310471f
DTITLE=Kenny Rogers - Live By Request
DYEAR=2001
DGENRE=Country
TTITLE0=Islands In The Stream
TTITLE1=Request 1
TTITLE2=Daytime Friends
TTITLE3=Request 2
TTITLE4=She Believes In Me
TTITLE5=Request 3
TTITLE6=Ruby, Don't Take Your Love To Town
TTITLE7=Request 4
TTITLE8=Love Will Turn You Around
TTITLE9=Request 5
TTITLE10=The Greatest
TTITLE11=Request 6
TTITLE12=Love Or Something Like It
TTITLE13=Request 7
TTITLE14=Through The Years
TTITLE15=Request 8
TTITLE16=Lucille
TTITLE17=Request 9
TTITLE18=Don't Fall In Love With A Dreamer
TTITLE19=Request 10
TTITLE20=Coward Of The County
TTITLE21=Request 11
TTITLE22=Lady
TTITLE23=Request 12
TTITLE24=Crazy
TTITLE25=Request 13
TTITLE26=The Gambler
TTITLE27=Request 14
TTITLE28=You Decorated My Life
TTITLE29=Request 15
TTITLE30=Slow Dance More
EXTD=YEAR: 2001
EXTT0=
EXTT1=
EXTT2=
EXTT3=
EXTT4=
EXTT5=
EXTT6=
EXTT7=
EXTT8=
EXTT9=
EXTT10=
EXTT11=
EXTT12=
EXTT13=
EXTT14=
EXTT15=
EXTT16=
EXTT17=
EXTT18=
EXTT19=
EXTT20=
EXTT21=
EXTT22=
EXTT23=
EXTT24=
EXTT25=
EXTT26=
EXTT27=
EXTT28=
EXTT29=
EXTT30=
PLAYORDER=
